<svg width="100" height="100" viewBox="0 0 100 100" fill="none" xmlns="http://www.w3.org/2000/svg">
<path d="M48.418 63.5753C47.7231 63.5728 47.037 63.4173 46.4071 63.1197C45.3784 62.6556 44.5522 61.8271 44.0835 60.7897C43.6149 59.7523 43.536 58.5773 43.8617 57.4851L47.1729 46.3836H39.3712C38.3772 46.3848 37.3968 46.1501 36.5085 45.6983C35.6202 45.2465 34.8487 44.5902 34.2558 43.7819C33.663 42.9736 33.2652 42.0359 33.0945 41.0438C32.9238 40.0518 32.9849 39.033 33.2728 38.0692L39.6873 16.5796C40.0782 15.2504 40.8842 14.0855 41.9842 13.2598C43.0841 12.4341 44.4188 11.9921 45.7878 12.0001H53.6213C54.5116 12.0009 55.3886 12.22 56.1772 12.6388C56.9658 13.0576 57.6426 13.6636 58.1497 14.405C58.6568 15.1464 58.9792 16.0012 59.0894 16.8963C59.1995 17.7915 59.0941 18.7003 58.7821 19.5451L55.2121 29.1918H60.636C61.7921 29.1918 62.9265 29.5108 63.9171 30.1146C64.9078 30.7185 65.7174 31.5844 66.2589 32.6192C66.8004 33.6541 67.0534 34.8189 66.9906 35.9885C66.9279 37.1581 66.5519 38.2882 65.9029 39.2576L52.3273 61.392C51.9077 62.0578 51.33 62.6065 50.6471 62.9879C49.9642 63.3693 49.1978 63.5713 48.418 63.5753ZM45.7878 16.298C45.3322 16.2976 44.8887 16.4457 44.5227 16.7205C44.1567 16.9953 43.8878 17.3821 43.7557 17.8238L37.3412 39.3135C37.2452 39.6346 37.2247 39.974 37.2814 40.3045C37.3381 40.6351 37.4704 40.9476 37.6677 41.217C37.865 41.4865 38.1218 41.7054 38.4177 41.8562C38.7135 42.0071 39.04 42.0856 39.3712 42.0856H50.0301C50.3613 42.0857 50.6878 42.1642 50.9837 42.315C51.2795 42.4659 51.5363 42.6848 51.7336 42.9542C51.9309 43.2237 52.0632 43.5362 52.1199 43.8668C52.1766 44.1973 52.1561 44.5367 52.0601 44.8578L47.9301 58.7015C47.911 58.7524 47.9026 58.8068 47.9054 58.8612C47.9081 58.9156 47.922 58.9689 47.9461 59.0176C47.9702 59.0663 48.0041 59.1093 48.0455 59.1441C48.087 59.1788 48.1351 59.2044 48.1868 59.2194C48.2337 59.2498 48.2864 59.27 48.3414 59.2785C48.3965 59.2871 48.4527 59.2839 48.5064 59.2691C48.5602 59.2544 48.6103 59.2283 48.6535 59.1927C48.6968 59.1571 48.7321 59.1128 48.7574 59.0625L62.3329 36.9281C62.5703 36.6019 62.7118 36.2143 62.7411 35.8101C62.7704 35.4059 62.6862 35.0016 62.4984 34.6438C62.3243 34.2952 62.0579 34.0026 61.7289 33.7988C61.4 33.595 61.0216 33.488 60.636 33.4898H52.1513C51.8085 33.49 51.4707 33.406 51.1669 33.2451C50.8631 33.0841 50.6023 32.8509 50.407 32.5655C50.2116 32.2801 50.0874 31.951 50.045 31.6063C50.0027 31.2617 50.0434 30.9117 50.1637 30.5865L54.8091 18.0366C54.8805 17.842 54.9044 17.6328 54.8789 17.4269C54.8534 17.2209 54.7792 17.0242 54.6626 16.8536C54.546 16.6829 54.3904 16.5432 54.2091 16.4465C54.0278 16.3498 53.8261 16.2989 53.6213 16.298H45.7878Z" fill="black"/>
<path d="M45.3775 83.4034L37.1203 80.2123V77.9203L45.3775 74.7292V76.933L37.9356 79.6833V78.4492L45.3775 81.1996V83.4034Z" fill="black"/>
<path d="M45.8569 87L51.5814 70.3921H53.9926L48.2681 87H45.8569Z" fill="black"/>
<path d="M54.298 83.4034V81.1996L61.7399 78.4492V79.6833L54.298 76.933V74.7292L62.5552 77.9203V80.2123L54.298 83.4034Z" fill="black"/>
</svg>
